<?xml version="1.0" encoding="UTF-8"?>
<!DOCTYPE svg PUBLIC "-//W3C//DTD SVG 1.1//EN" "http://www.w3.org/Graphics/SVG/1.1/DTD/svg11.dtd">
<!-- Creator: CorelDRAW 2021 (64-Bit) -->
<svg xmlns="http://www.w3.org/2000/svg" xml:space="preserve" width="210mm" height="297mm" version="1.1" style="shape-rendering:geometricPrecision; text-rendering:geometricPrecision; image-rendering:optimizeQuality; fill-rule:evenodd; clip-rule:evenodd"
viewBox="0 0 21000 29700"
 xmlns:xlink="http://www.w3.org/1999/xlink"
 xmlns:xodm="http://www.corel.com/coreldraw/odm/2003">
 <defs>
  <style type="text/css">
   <![CDATA[
    .fil1 {fill:#2B2A29}
    .fil2 {fill:#2B2A29;fill-rule:nonzero}
    .fil0 {fill:#2B2A29;fill-rule:nonzero}
   ]]>
  </style>
 </defs>
 <g id="Слой_x0020_1">
  <metadata id="CorelCorpID_0Corel-Layer"/>
  <g id="_2200914440608">
   <polygon class="fil0" points="10578.6,15126.27 10168.71,14544.94 9968.37,14978.14 10378.24,15559.54 11082.52,15495.65 11086.65,15495.28 11286.99,15062.09 "/>
   <polygon class="fil0" points="11103.69,14909.49 11107.81,14909.11 11236.08,14631.72 10788.56,14672.33 10529.59,14305.01 10401.32,14582.39 10660.3,14949.68 "/>
   <polygon class="fil1" points="11123.25,14485.79 11194.9,14330.85 10935.58,14354.33 10785.51,14141.53 10713.85,14296.47 10863.92,14509.27 "/>
  </g>
  <path class="fil2" d="M11672.64 15303.47l0 -353.63 243 0 0 59.77 -171.38 0 0 83.96 148.17 0 0 59.76 -148.17 0 0 150.14 -71.62 0zm301.68 0l0 -353.63 150.39 0c37.79,0 65.28,3.22 82.4,9.55 17.2,6.34 30.87,17.62 41.16,33.83 10.29,16.3 15.47,34.82 15.47,55.73 0,26.59 -7.73,48.49 -23.29,65.77 -15.56,17.29 -38.77,28.15 -69.72,32.68 15.39,8.97 28.07,18.85 38.03,29.63 10.04,10.79 23.54,29.97 40.5,57.46l43.13 68.98 -85.36 0 -51.2 -77.21c-18.36,-27.41 -30.95,-44.7 -37.78,-51.86 -6.75,-7.08 -13.92,-12.02 -21.49,-14.65 -7.65,-2.64 -19.67,-3.95 -36.13,-3.95l-14.49 0 0 147.67 -71.62 0zm71.62 -203.98l52.84 0c34.25,0 55.57,-1.48 64.13,-4.36 8.48,-2.88 15.23,-7.9 20,-14.98 4.86,-7.08 7.24,-15.97 7.24,-26.59 0,-11.93 -3.21,-21.48 -9.54,-28.89 -6.34,-7.33 -15.32,-11.94 -26.84,-13.83 -5.84,-0.82 -23.21,-1.23 -52.1,-1.23l-55.73 0 0 89.88zm603.61 203.98l-77.13 0 -30.53 -80.5 -141.83 0 -29.39 80.5 -75.73 0 137.3 -353.63 75.65 0 141.66 353.63zm-130.88 -140.26l-49.14 -130.89 -47.74 130.89 96.88 0zm168.99 140.26l0 -353.63 69.31 0 145.54 236.99 0 -236.99 66.18 0 0 353.63 -71.53 0 -143.31 -232.46 0 232.46 -66.19 0zm582.88 -130.39l69.14 21.24c-10.62,38.94 -28.32,67.83 -53.01,86.76 -24.7,18.85 -55.97,28.32 -93.92,28.32 -47,0 -85.61,-16.05 -115.9,-48.16 -30.21,-32.1 -45.36,-75.97 -45.36,-131.7 0,-58.86 15.23,-104.62 45.61,-137.22 30.37,-32.6 70.37,-48.9 119.93,-48.9 43.3,0 78.44,12.85 105.44,38.45 16.14,15.14 28.16,36.87 36.22,65.27l-70.62 16.79c-4.2,-18.27 -12.93,-32.76 -26.18,-43.38 -13.34,-10.62 -29.47,-15.88 -48.4,-15.88 -26.26,0 -47.58,9.38 -63.88,28.23 -16.38,18.77 -24.53,49.22 -24.53,91.37 0,44.61 8.07,76.47 24.12,95.4 16.13,19.02 37.04,28.48 62.81,28.48 19.01,0 35.39,-6 49.06,-18.1 13.66,-12.11 23.54,-31.04 29.47,-56.97zm130.46 130.39l0 -353.63 261.77 0 0 59.77 -190.15 0 0 78.52 176.81 0 0 59.76 -176.81 0 0 95.82 197.06 0 0 59.76 -268.68 0zm-1730.83 -551.76l0 -353.63 71.62 0 0 353.63 -71.62 0zm139.69 0l0 -353.63 69.31 0 145.54 236.99 0 -236.99 66.18 0 0 353.63 -71.53 0 -143.31 -232.46 0 232.46 -66.19 0zm356.67 0l0 -353.63 243 0 0 59.77 -171.38 0 0 83.96 148.17 0 0 59.76 -148.17 0 0 150.14 -71.62 0zm286.87 -174.67c0,-36.06 5.43,-66.35 16.21,-90.88 7.99,-18.03 19.02,-34.24 32.93,-48.56 13.91,-14.33 29.14,-24.95 45.68,-31.94 22.06,-9.3 47.5,-14 76.31,-14 52.19,0 93.84,16.22 125.2,48.57 31.28,32.43 46.92,77.46 46.92,135.16 0,57.21 -15.56,101.99 -46.59,134.26 -31.03,32.35 -72.6,48.48 -124.54,48.48 -52.6,0 -94.5,-16.05 -125.53,-48.24 -31.04,-32.1 -46.59,-76.38 -46.59,-132.85zm73.59 -2.39c0,40.09 9.3,70.46 27.82,91.21 18.52,20.66 42.06,31.03 70.54,31.03 28.57,0 51.94,-10.29 70.3,-30.79 18.27,-20.58 27.41,-51.36 27.41,-92.44 0,-40.58 -8.89,-70.87 -26.75,-90.79 -17.78,-20 -41.41,-29.96 -70.96,-29.96 -29.47,0 -53.25,10.12 -71.28,30.29 -18.03,20.25 -27.08,50.7 -27.08,91.45zm447.79 2.39c0,-36.06 5.43,-66.35 16.21,-90.88 7.99,-18.03 19.02,-34.24 32.93,-48.56 13.91,-14.33 29.14,-24.95 45.68,-31.94 22.06,-9.3 47.5,-14 76.31,-14 52.19,0 93.84,16.22 125.2,48.57 31.28,32.43 46.92,77.46 46.92,135.16 0,57.21 -15.56,101.99 -46.59,134.26 -31.03,32.35 -72.6,48.48 -124.54,48.48 -52.6,0 -94.5,-16.05 -125.53,-48.24 -31.04,-32.1 -46.59,-76.38 -46.59,-132.85zm73.59 -2.39c0,40.09 9.3,70.46 27.82,91.21 18.52,20.66 42.06,31.03 70.54,31.03 28.57,0 51.94,-10.29 70.3,-30.79 18.27,-20.58 27.41,-51.36 27.41,-92.44 0,-40.58 -8.89,-70.87 -26.75,-90.79 -17.78,-20 -41.41,-29.96 -70.96,-29.96 -29.47,0 -53.25,10.12 -71.28,30.29 -18.03,20.25 -27.08,50.7 -27.08,91.45zm325.38 177.06l0 -353.63 114.5 0c43.38,0 71.62,1.73 84.79,5.27 20.25,5.35 37.2,16.88 50.87,34.66 13.66,17.78 20.5,40.74 20.5,68.9 0,21.73 -3.96,39.92 -11.78,54.73 -7.9,14.82 -17.86,26.43 -29.96,34.91 -12.1,8.39 -24.45,13.99 -36.96,16.71 -17.04,3.37 -41.65,5.1 -73.92,5.1l-46.42 0 0 133.35 -71.62 0zm71.62 -293.86l0 100.75 38.93 0c28.07,0 46.76,-1.89 56.22,-5.6 9.47,-3.7 16.88,-9.46 22.23,-17.45 5.35,-7.9 8.07,-17.04 8.07,-27.57 0,-12.93 -3.79,-23.55 -11.28,-31.94 -7.57,-8.4 -17.04,-13.67 -28.65,-15.81 -8.48,-1.56 -25.51,-2.38 -51.2,-2.38l-34.32 0zm239.04 179.28l69.63 -6.92c4.2,23.3 12.6,40.34 25.36,51.29 12.76,10.94 29.96,16.38 51.61,16.38 22.88,0 40.17,-4.86 51.78,-14.57 11.6,-9.72 17.45,-21.08 17.45,-34.08 0,-8.4 -2.47,-15.48 -7.33,-21.4 -4.86,-5.85 -13.42,-10.95 -25.6,-15.23 -8.31,-2.97 -27.25,-8.07 -56.88,-15.48 -38.11,-9.55 -64.86,-21.23 -80.26,-35.15 -21.65,-19.5 -32.43,-43.29 -32.43,-71.36 0,-18.03 5.1,-34.99 15.23,-50.71 10.21,-15.72 24.86,-27.66 44.04,-35.89 19.18,-8.23 42.23,-12.35 69.39,-12.35 44.2,0 77.54,9.8 99.85,29.47 22.39,19.68 34.08,45.85 35.23,78.7l-71.62 2.47c-3.04,-18.28 -9.54,-31.37 -19.5,-39.35 -9.96,-7.99 -24.95,-12.02 -44.87,-12.02 -20.57,0 -36.71,4.28 -48.31,12.84 -7.5,5.52 -11.28,12.84 -11.28,22.06 0,8.4 3.54,15.56 10.62,21.49 8.97,7.65 30.78,15.55 65.44,23.79 34.65,8.14 60.25,16.71 76.8,25.43 16.62,8.81 29.63,20.74 39.01,35.97 9.39,15.23 14.08,34 14.08,56.31 0,20.25 -5.6,39.26 -16.87,56.96 -11.28,17.7 -27.17,30.87 -47.75,39.43 -20.58,8.64 -46.26,12.92 -76.96,12.92 -44.7,0 -79.02,-10.29 -102.98,-30.95 -23.95,-20.58 -38.19,-50.62 -42.88,-90.05z"/>
 </g>
</svg>
