<?xml version="1.0" encoding="UTF-8"?>
<!DOCTYPE svg PUBLIC "-//W3C//DTD SVG 1.1//EN" "http://www.w3.org/Graphics/SVG/1.1/DTD/svg11.dtd">
<!-- Creator: CorelDRAW 2021 (64-Bit) -->
<svg xmlns="http://www.w3.org/2000/svg" xml:space="preserve" width="25mm" height="9mm" version="1.1" style="shape-rendering:geometricPrecision; text-rendering:geometricPrecision; image-rendering:optimizeQuality; fill-rule:evenodd; clip-rule:evenodd"
viewBox="0 0 2500 900"
 xmlns:xlink="http://www.w3.org/1999/xlink"
 xmlns:xodm="http://www.corel.com/coreldraw/odm/2003">
 <defs>
  <style type="text/css">
   <![CDATA[
    .fil1 {fill:#FEFEFE}
    .fil0 {fill:#FEFEFE;fill-rule:nonzero}
   ]]>
  </style>
 </defs>
 <g id="Слой_x0020_1">
  <metadata id="CorelCorpID_0Corel-Layer"/>
  <g id="_1877003838768">
   <g>
    <polygon class="fil0" points="386.57,632.24 136.78,277.97 14.69,541.96 264.47,896.27 693.66,857.34 696.18,857.11 818.26,593.12 "/>
    <polygon class="fil0" points="706.56,500.12 709.07,499.89 787.24,330.86 514.52,355.6 356.7,131.75 278.53,300.79 436.36,524.62 "/>
    <polygon class="fil1" points="718.48,241.92 762.14,147.5 604.11,161.81 512.66,32.13 468.99,126.55 560.44,256.23 "/>
   </g>
   <path class="fil0" d="M1053.28 740.22l0 -215.5 148.09 0 0 36.42 -104.44 0 0 51.17 90.29 0 0 36.41 -90.29 0 0 91.5 -43.65 0zm183.85 0l0 -215.5 91.65 0c23.03,0 39.78,1.96 50.21,5.82 10.48,3.86 18.81,10.73 25.08,20.61 6.28,9.94 9.43,21.22 9.43,33.96 0,16.21 -4.71,29.55 -14.19,40.09 -9.48,10.53 -23.63,17.15 -42.49,19.91 9.38,5.47 17.11,11.49 23.18,18.06 6.12,6.57 14.34,18.26 24.68,35.01l26.28 42.04 -52.02 0 -31.2 -47.05c-11.19,-16.71 -18.86,-27.24 -23.02,-31.61 -4.12,-4.31 -8.49,-7.32 -13.1,-8.92 -4.66,-1.61 -11.99,-2.41 -22.02,-2.41l-8.83 0 0 89.99 -43.64 0zm43.64 -124.31l32.2 0c20.88,0 33.87,-0.9 39.09,-2.65 5.16,-1.76 9.28,-4.82 12.18,-9.13 2.97,-4.32 4.42,-9.73 4.42,-16.21 0,-7.27 -1.96,-13.09 -5.82,-17.6 -3.86,-4.47 -9.33,-7.28 -16.35,-8.43 -3.56,-0.5 -14.15,-0.75 -31.75,-0.75l-33.97 0 0 54.77zm367.85 124.31l-47.01 0 -18.6 -49.06 -86.43 0 -17.91 49.06 -46.15 0 83.67 -215.5 46.1 0 86.33 215.5zm-79.76 -85.47l-29.95 -79.77 -29.09 79.77 59.04 0zm102.98 85.47l0 -215.5 42.24 0 88.69 144.42 0 -144.42 40.33 0 0 215.5 -43.59 0 -87.33 -141.66 0 141.66 -40.34 0zm355.21 -79.46l42.14 12.94c-6.48,23.73 -17.26,41.34 -32.31,52.88 -15.05,11.48 -34.11,17.25 -57.23,17.25 -28.65,0 -52.18,-9.78 -70.63,-29.34 -18.41,-19.57 -27.65,-46.3 -27.65,-80.26 0,-35.87 9.28,-63.76 27.8,-83.63 18.51,-19.86 42.88,-29.8 73.08,-29.8 26.39,0 47.81,7.84 64.26,23.44 9.84,9.22 17.16,22.46 22.07,39.77l-43.03 10.23c-2.56,-11.13 -7.88,-19.96 -15.96,-26.43 -8.13,-6.47 -17.96,-9.68 -29.49,-9.68 -16.01,0 -29,5.72 -38.93,17.2 -9.98,11.44 -14.95,30 -14.95,55.69 0,27.18 4.92,46.6 14.7,58.13 9.83,11.59 22.57,17.36 38.27,17.36 11.59,0 21.57,-3.66 29.9,-11.03 8.33,-7.38 14.35,-18.92 17.96,-34.72zm79.5 79.46l0 -215.5 159.53 0 0 36.42 -115.88 0 0 47.85 107.75 0 0 36.42 -107.75 0 0 58.39 120.09 0 0 36.42 -163.74 0zm-1054.77 -336.24l0 -215.51 43.64 0 0 215.51 -43.64 0zm85.12 0l0 -215.51 42.24 0 88.7 144.42 0 -144.42 40.33 0 0 215.51 -43.59 0 -87.34 -141.67 0 141.67 -40.34 0zm217.36 0l0 -215.51 148.09 0 0 36.43 -104.44 0 0 51.16 90.29 0 0 36.42 -90.29 0 0 91.5 -43.65 0zm174.82 -106.45c0,-21.98 3.31,-40.43 9.88,-55.38 4.87,-10.99 11.59,-20.87 20.07,-29.6 8.47,-8.73 17.76,-15.2 27.84,-19.46 13.44,-5.67 28.94,-8.53 46.5,-8.53 31.8,0 57.19,9.88 76.3,29.6 19.06,19.76 28.59,47.2 28.59,82.36 0,34.87 -9.48,62.16 -28.39,81.82 -18.91,19.72 -44.24,29.55 -75.9,29.55 -32.05,0 -57.59,-9.78 -76.5,-29.4 -18.91,-19.56 -28.39,-46.55 -28.39,-80.96zm44.85 -1.46c0,24.43 5.67,42.94 16.95,55.59 11.29,12.59 25.63,18.91 42.99,18.91 17.41,0 31.65,-6.27 42.84,-18.77 11.13,-12.54 16.7,-31.3 16.7,-56.33 0,-24.73 -5.41,-43.19 -16.3,-55.33 -10.83,-12.19 -25.23,-18.26 -43.24,-18.26 -17.96,0 -32.45,6.17 -43.44,18.46 -10.99,12.34 -16.5,30.9 -16.5,55.73zm272.88 1.46c0,-21.98 3.31,-40.43 9.88,-55.38 4.87,-10.99 11.59,-20.87 20.07,-29.6 8.48,-8.73 17.76,-15.2 27.84,-19.46 13.44,-5.67 28.94,-8.53 46.5,-8.53 31.81,0 57.19,9.88 76.3,29.6 19.06,19.76 28.59,47.2 28.59,82.36 0,34.87 -9.48,62.16 -28.39,81.82 -18.91,19.72 -44.24,29.55 -75.9,29.55 -32.05,0 -57.58,-9.78 -76.49,-29.4 -18.92,-19.56 -28.4,-46.55 -28.4,-80.96zm44.85 -1.46c0,24.43 5.67,42.94 16.95,55.59 11.29,12.59 25.64,18.91 42.99,18.91 17.41,0 31.65,-6.27 42.84,-18.77 11.14,-12.54 16.71,-31.3 16.71,-56.33 0,-24.73 -5.42,-43.19 -16.31,-55.33 -10.83,-12.19 -25.23,-18.26 -43.24,-18.26 -17.96,0 -32.45,6.17 -43.44,18.46 -10.99,12.34 -16.5,30.9 -16.5,55.73zm198.29 107.91l0 -215.51 69.78 0c26.43,0 43.64,1.06 51.67,3.21 12.34,3.26 22.67,10.29 31,21.12 8.32,10.84 12.49,24.83 12.49,41.99 0,13.24 -2.41,24.33 -7.18,33.36 -4.81,9.03 -10.88,16.1 -18.26,21.27 -7.37,5.11 -14.9,8.53 -22.52,10.18 -10.38,2.06 -25.38,3.11 -45.05,3.11l-28.29 0 0 81.27 -43.64 0zm43.64 -179.08l0 61.39 23.73 0c17.1,0 28.49,-1.15 34.26,-3.41 5.77,-2.25 10.29,-5.76 13.55,-10.63 3.26,-4.82 4.91,-10.39 4.91,-16.81 0,-7.88 -2.31,-14.35 -6.87,-19.46 -4.61,-5.12 -10.38,-8.33 -17.46,-9.63 -5.17,-0.96 -15.55,-1.45 -31.2,-1.45l-20.92 0zm145.68 109.25l42.43 -4.22c2.56,14.2 7.68,24.59 15.45,31.26 7.78,6.67 18.26,9.98 31.46,9.98 13.94,0 24.47,-2.96 31.55,-8.88 7.07,-5.92 10.63,-12.84 10.63,-20.77 0,-5.12 -1.5,-9.43 -4.46,-13.04 -2.96,-3.56 -8.18,-6.67 -15.6,-9.28 -5.07,-1.81 -16.61,-4.92 -34.67,-9.43 -23.22,-5.82 -39.52,-12.94 -48.91,-21.42 -13.19,-11.89 -19.76,-26.38 -19.76,-43.49 0,-10.99 3.11,-21.32 9.28,-30.9 6.22,-9.58 15.15,-16.86 26.84,-21.88 11.69,-5.01 25.73,-7.52 42.29,-7.52 26.93,0 47.25,5.97 60.84,17.96 13.65,11.99 20.77,27.94 21.47,47.96l-43.64 1.5c-1.85,-11.14 -5.82,-19.11 -11.88,-23.98 -6.07,-4.87 -15.21,-7.32 -27.35,-7.32 -12.53,0 -22.37,2.61 -29.44,7.82 -4.57,3.37 -6.87,7.83 -6.87,13.45 0,5.12 2.15,9.48 6.47,13.09 5.46,4.66 18.76,9.48 39.88,14.5 21.11,4.96 36.71,10.18 46.8,15.5 10.13,5.37 18.06,12.64 23.77,21.92 5.73,9.28 8.58,20.72 8.58,34.31 0,12.34 -3.41,23.93 -10.28,34.72 -6.87,10.78 -16.55,18.81 -29.1,24.02 -12.54,5.27 -28.19,7.88 -46.9,7.88 -27.24,0 -48.15,-6.27 -62.75,-18.86 -14.6,-12.55 -23.28,-30.85 -26.13,-54.88z"/>
  </g>
 </g>
</svg>
